<svg xmlns="http://www.w3.org/2000/svg" viewBox="0 0 20 20" width="20" height="20">
	<style>
		tspan { white-space:pre }
		.shp0 { fill: #333333 } 
	</style>
	<g id="header">
		<path id="Search" class="shp0" d="M16.53 17.53C15.95 18.12 15 18.12 14.41 17.53L11.76 14.89C10.68 15.58 9.39 16 8 16C4.13 16 1 12.87 1 9C1 5.13 4.13 2 8 2C11.87 2 15 5.13 15 9C15 10.39 14.58 11.68 13.89 12.76L16.53 15.41C17.12 16 17.12 16.95 16.53 17.53ZM8 4C5.24 4 3 6.24 3 9C3 11.76 5.24 14 8 14C10.76 14 13 11.76 13 9C13 6.24 10.76 4 8 4Z" />
	</g>
</svg>