<svg xmlns="http://www.w3.org/2000/svg" viewBox="0 0 26 24" width="26" height="24">
	<style>
		tspan { white-space:pre }
		.shp0 { fill: #ffffff } 
	</style>
	<g id="footer">
		<g id="social">
			<path id="facebook" class="shp0" d="M22.31 22.99L3.69 22.99C2.75 22.99 1.99 22.3 1.99 21.37L1.99 2.7C1.99 1.77 2.75 1.01 3.69 1.01L22.31 1.01C23.25 1.01 24.01 1.77 24.01 2.7L24.01 21.37C24.01 22.3 23.25 22.99 22.31 22.99ZM10.85 5.25C9.85 5.25 9.41 5.41 8.75 5.73C8.09 6.05 7.62 6.62 7.38 7.13C7.13 7.64 7.01 8.26 7.01 9.29L7.01 10.3L4.99 10.3L4.99 12.97L7.01 12.97L7.01 21L9.99 21L9.99 12.97L12.71 12.97L13.32 10.3L9.99 10.3L9.99 9.35C9.99 8.72 10.11 8.3 10.33 8.08C10.56 7.86 11.53 7.73 12.06 7.73C12.59 7.73 13.02 7.98 13.56 8.29L14.2 5.87C13.21 5.59 11.88 5.25 10.85 5.25Z" />
		</g>
	</g>
</svg>