<svg xmlns="http://www.w3.org/2000/svg" viewBox="0 0 24 24" width="24" height="24">
	<style>
		tspan { white-space:pre }
		.shp0 { fill: #ffffff } 
	</style>
	<g id="footer">
		<g id="social">
			<path id="instagram" class="shp0" d="M20.28 22.99L3.72 22.99C2.22 22.99 1.01 21.78 1.01 20.28L1.01 3.72C1.01 2.22 2.22 1.01 3.72 1.01L20.28 1.01C21.78 1.01 22.99 2.22 22.99 3.72L22.99 20.28C22.99 21.78 21.78 22.99 20.28 22.99ZM12 8C10.39 8 9 8.95 8.37 10.32L8.36 10.32C8.36 10.33 8.35 10.35 8.35 10.37C8.31 10.45 8.28 10.54 8.24 10.62C8.23 10.67 8.21 10.71 8.2 10.75C8.17 10.84 8.14 10.93 8.12 11.02C8.11 11.07 8.1 11.11 8.09 11.15C8.07 11.25 8.05 11.35 8.04 11.45C8.03 11.49 8.02 11.53 8.02 11.57C8 11.71 8 11.85 8 12C8 14.21 9.79 16 12 16C14.21 16 16 14.21 16 12C16 11.85 16 11.71 15.98 11.57C15.98 11.53 15.97 11.49 15.96 11.45C15.95 11.35 15.93 11.25 15.91 11.15C15.9 11.11 15.89 11.07 15.88 11.02C15.86 10.93 15.83 10.84 15.8 10.75C15.79 10.71 15.77 10.67 15.76 10.62C15.72 10.54 15.69 10.45 15.65 10.37C15.65 10.35 15.64 10.33 15.64 10.32L15.63 10.32C15 8.95 13.61 8 12 8ZM20.01 5.08C20.01 4.48 19.52 4 18.93 4L18.05 4C17.46 4 16.97 4.48 16.97 5.08L16.97 5.92C16.97 6.51 17.46 7 18.05 7L18.93 7C19.52 7 20.01 6.51 20.01 5.92L20.01 5.08ZM20.98 10.01L17.71 10.01C17.86 10.57 18.05 11.44 18.05 12.05C18.05 15.72 14.97 18.05 12 18.05C8.96 18.05 5.95 15.72 5.95 12.05C5.95 11.44 6.17 10.57 6.32 10.01L3.03 9.98L3.03 19.89C3.03 20.49 3.51 20.98 4.11 20.98L19.89 20.98C20.49 20.98 20.98 20.49 20.98 19.89L20.98 10.01Z" />
		</g>
	</g>
</svg>