<svg xmlns="http://www.w3.org/2000/svg" viewBox="0 0 24 24" width="24" height="24">
	<style>
		tspan { white-space:pre }
		.shp0 { fill: #ffffff } 
	</style>
	<g id="footer">
		<g id="social">
			<path id="pinterest" class="shp0" d="M12 1.01C5.93 1.01 1.01 5.93 1.01 12C1.01 16.52 3.74 20.41 7.65 22.1C7.62 21.33 7.65 20.42 7.84 19.59C8.06 18.69 9.26 13.58 9.26 13.58C9.26 13.58 8.91 12.87 8.91 11.83C8.91 10.2 9.86 8.98 11.04 8.98C12.04 8.98 12.53 9.73 12.53 10.63C12.53 11.64 11.88 13.15 11.55 14.55C11.27 15.72 12.14 16.67 13.29 16.67C15.38 16.67 16.79 13.99 16.79 10.81C16.79 8.39 15.16 6.58 12.2 6.58C8.85 6.58 6.77 9.08 6.77 11.86C6.77 12.82 7.05 13.5 7.5 14.03C7.7 14.27 7.73 14.36 7.65 14.64C7.6 14.84 7.48 15.33 7.43 15.53C7.36 15.81 7.13 15.9 6.88 15.8C5.34 15.17 4.62 13.49 4.62 11.59C4.62 8.46 7.26 4.7 12.5 4.7C16.71 4.7 19.48 7.75 19.48 11.02C19.48 15.34 17.08 18.58 13.53 18.58C12.34 18.58 11.22 17.93 10.84 17.2C10.84 17.2 10.2 19.74 10.06 20.23C9.83 21.07 9.39 21.91 8.97 22.57C9.93 22.84 10.95 22.99 12 22.99C18.07 22.99 22.99 18.07 22.99 12C22.99 5.93 18.07 1.01 12 1.01Z" />
		</g>
	</g>
</svg>