<svg xmlns="http://www.w3.org/2000/svg" viewBox="0 0 26 24" width="26" height="24">
	<style>
		tspan { white-space:pre }
		.shp0 { fill: #ffffff } 
	</style>
	<g id="footer">
		<g id="social">
			<path id="twitter" class="shp0" d="M17.32 2.01C19.23 1.97 20.24 2.69 21.21 3.59C22.03 3.52 23.1 3.05 23.73 2.72C23.93 2.61 24.14 2.49 24.34 2.38C23.98 3.37 23.49 4.16 22.74 4.75C22.58 4.88 22.41 5.06 22.2 5.14C22.2 5.15 22.2 5.15 22.2 5.15C23.27 5.14 24.15 4.65 24.99 4.38C24.99 4.38 24.99 4.39 24.99 4.39C24.55 5.11 23.95 5.84 23.32 6.36C23.06 6.57 22.81 6.78 22.55 6.99C22.57 8.15 22.54 9.26 22.32 10.23C21.1 15.91 17.84 19.76 12.69 21.41C10.84 22 7.85 22.24 5.73 21.7C4.68 21.43 3.73 21.13 2.84 20.73C2.34 20.51 1.88 20.27 1.44 19.99C1.3 19.9 1.16 19.81 1.01 19.72C1.49 19.74 2.05 19.87 2.58 19.78C3.07 19.7 3.54 19.72 3.99 19.62C5.1 19.37 6.09 19.04 6.94 18.53C7.35 18.28 7.98 17.99 8.27 17.63C7.72 17.64 7.22 17.51 6.81 17.36C5.22 16.79 4.29 15.72 3.69 14.13C4.17 14.18 5.56 14.31 5.88 14.03C5.28 14 4.69 13.64 4.28 13.37C3 12.54 1.95 11.16 1.96 9.04C2.13 9.12 2.3 9.2 2.46 9.29C2.79 9.42 3.11 9.5 3.5 9.58C3.66 9.61 3.98 9.71 4.17 9.64C4.16 9.64 4.15 9.64 4.14 9.64C3.9 9.35 3.49 9.15 3.24 8.83C2.42 7.78 1.65 6.17 2.14 4.24C2.26 3.76 2.46 3.33 2.67 2.93C2.68 2.93 2.68 2.94 2.69 2.94C2.79 3.15 3 3.3 3.14 3.47C3.56 4 4.07 4.48 4.6 4.91C6.4 6.35 8.01 7.24 10.61 7.9C11.27 8.06 12.03 8.19 12.82 8.19C12.6 7.53 12.67 6.46 12.84 5.82C13.28 4.21 14.23 3.05 15.63 2.43C15.96 2.28 16.33 2.17 16.72 2.08C16.92 2.06 17.12 2.03 17.32 2.01Z" />
		</g>
	</g>
</svg>