<svg xmlns="http://www.w3.org/2000/svg" viewBox="0 0 20 20" width="20" height="20">
	<style>
		tspan { white-space:pre }
		.shp0 { fill: #5c6bc0 } 
	</style>
	<g id="nav bar">
		<g id="search">
			<path id="hover" class="shp0" d="M17.53 17.53C16.95 18.12 16 18.12 15.41 17.53L12.76 14.89C11.68 15.58 10.39 16 9 16C5.13 16 2 12.87 2 9C2 5.13 5.13 2 9 2C12.87 2 16 5.13 16 9C16 10.39 15.58 11.68 14.89 12.76L17.53 15.41C18.12 16 18.12 16.95 17.53 17.53ZM9 4C6.24 4 4 6.24 4 9C4 11.76 6.24 14 9 14C11.76 14 14 11.76 14 9C14 6.24 11.76 4 9 4Z" />
		</g>
	</g>
</svg>